# xmcd
#
# Track frame offsets:
#	150
#	15787
#	37274
#
# Disc length: 776 seconds
#
# Revision: 0
# Processed by: cddbd v1.5.2PL0 Copyright (c) Steve Scherf et al.
# Submitted via: audiograbber 1.83.01
#
DISCID=18030603
DTITLE=Marky - The Floor Is Burning [CDM)
DYEAR=2000
DGENRE=Dance
TTITLE0=The Floor Is Burning (Radio Mix)
TTITLE1=The Floor Is Burning (Burning Floor Mix)
TTITLE2=The Floor Is Burning (Extended Mix)
EXTD=TR.
EXTT0=
EXTT1=
EXTT2=
PLAYORDER=
